# xmcd
#
# Track frame offsets:
#	150
#	35495
#	49710
#	73700
#	108298
#	147923
#	157803
#	197348
#	218340
#	242768
#
# Disc length: 3654 seconds
#
# Revision: 0
# Processed by: cddbd v1.5.2PL0 Copyright (c) Steve Scherf et al.
# Submitted via: EasyCDDAExtractor 16.0.8.2
#
DISCID=7e0e440a
DTITLE=Άγνωστος - Ανθολ. βυζαντ. κοσμικής μουσικής-Χ. Χάλαρης 2
DYEAR=1993
DGENRE=Βυζαντινή κοσμική
TTITLE0=Άγνωστος - On the grass of a meadow
TTITLE1=Άγνωστος - Kalamotoutsikos
TTITLE2=Άγνωστος - Who is brave and fast
TTITLE3=Άνευ ερμηνευτού - A work by the same Master Lambadarios
TTITLE4=Άγνωστος - The wall of Semiramis
TTITLE5=Άγνωστος - Epitaph of Sikelos
TTITLE6=Άγνωστος - When Constantine was wandering abroad as a beggar
TTITLE7=Άγνωστος - After the wedding ceremony at home (nuptial song of Cyprus)
TTITLE8=Άγνωστος - Do you want to hear crying
TTITLE9=Άνευ ερμηνευτού - ''The Wheel'' by Master Ioannis Koukouzelis
EXTD=\n
EXTT0=
EXTT1=
EXTT2=
EXTT3=
EXTT4=
EXTT5=
EXTT6=
EXTT7=
EXTT8=
EXTT9=
PLAYORDER=
